# AST/ASF file generated using VICON BodyLanguage
# -----------------------------------------------
:version 1.10
:name VICON
:units
  mass 1.0
  length 0.45
  angle deg
:documentation
   .ast/.asf automatically generated from VICON data using
   VICON BodyBuilder and BodyLanguage model FoxedUp or BRILLIANT.MOD
:root
   order TX TY TZ RX RY RZ
   axis XYZ
   position 0 0 0  
   orientation 0 0 0 
:bonedata
  begin
     id 1 
     name lhipjoint
     direction 0.598477 -0.721498 0.348234 
     length 2.38516 
     axis 0 0 0  XYZ
  end
  begin
     id 2 
     name lfemur
     direction 0.34202 -0.939693 0  
     length 6.81097  
     axis 0 0 20  XYZ
    dof rx ry rz
    limits (-160.0 20.0)
           (-70.0 70.0)
           (-60.0 70.0)
  end
  begin
     id 3 
     name ltibia
     direction 0.34202 -0.939693 0   
     length 7.43697   
     axis 0 0 20   XYZ
    dof rx
    limits (-10.0 170.0)
  end
  begin
     id 4 
     name lfoot
     direction 0.0644912 -0.177188 0.982062   
     length 2.0384   
     axis -90 7.62852e-016 20   XYZ
    dof rx rz
    limits (-45.0 90.0)
           (-70.0 20.0)
  end
  begin
     id 5 
     name ltoes
     direction 1.53517e-011 -4.21905e-011 1   
     length 1.02854   
     axis -90 7.62852e-016 20   XYZ
    dof rx
    limits (-90.0 20.0)
  end
  begin
     id 6 
     name rhipjoint
     direction -0.591517 -0.726138 0.350474   
     length 2.36992  
     axis 0 0 0  XYZ 
  end
  begin
     id 7 
     name rfemur
     direction -0.34202 -0.939693 0   
     length 6.93503   
     axis 0 0 -20   XYZ
    dof rx ry rz
    limits (-160.0 20.0)
           (-70.0 70.0)
           (-70.0 60.0)
  end
  begin
     id 8 
     name rtibia
     direction -0.34202 -0.939693 0   
     length 7.45107   
     axis 0 0 -20   XYZ
    dof rx
    limits (-10.0 170.0)
 end
 begin
     id 9 
     name rfoot
     direction -0.0677555 -0.186157 0.980181   
     length 1.90244  
     axis -90 -7.62852e-016 -20   XYZ
    dof rx rz
    limits (-45.0 90.0)
           (-20.0 70.0)
  end
  begin
     id 10 
     name rtoes
     direction -1.53409e-011 -4.21428e-011 1   
     length 0.961454   
     axis -90 -7.62852e-016 -20   XYZ
    dof rx
    limits (-90.0 20.0)
  end
  begin
     id 11 
     name lowerback
     direction -0.0289484 0.992437 0.119291   
     length 1.96261   
     axis 0 0 0   XYZ
    dof rx ry rz
    limits (-20.0 45.0)
           (-30.0 30.0)
           (-30.0 30.0)
  end
  begin
     id 12 
     name upperback
     direction 0.0109352 0.999834 0.0146028   
     length 1.96894   
     axis 0 0 0   XYZ
    dof rx ry rz
    limits (-20.0 45.0)
           (-30.0 30.0)
           (-30.0 30.0)
  end
  begin
     id 13 
     name thorax
     direction 0.0232227 0.998895 -0.0408582   
     length 2.00029   
     axis 0 0 0   XYZ
    dof rx ry rz
    limits (-20.0 45.0)
           (-30.0 30.0)
           (-30.0 30.0)
  end
  begin
     id 14 
     name lowerneck
     direction -0.00291659 0.999583 0.0287188   
     length 1.72722   
     axis 0 0 0   XYZ
    dof rx ry rz
    limits (-20.0 45.0)
           (-30.0 30.0)
           (-30.0 30.0)
  end
  begin
     id 15 
     name upperneck
     direction 0.0277639 0.998467 -0.0478817   
     length 1.68525   
     axis 0 0 0   XYZ
    dof rx ry rz
    limits (-20.0 45.0)
           (-30.0 30.0)
           (-30.0 30.0)
  end
  begin
     id 16
     name head
     direction 0.00895921 0.999741 -0.020943  
     length 1.78934  
     axis 0 0 0   XYZ
    dof rx ry rz
    limits (-20.0 45.0)
           (-30.0 30.0)
           (-30.0 30.0)
  end
  begin
     id 17 
     name lclavicle
     direction 0.907972 0.393865 -0.143029  
     length 3.37543  
     axis 0 0 0   XYZ
    dof ry rz
    limits (-20.0 10.0)
           (0.0 20.0)
  end
  begin
     id 18 
     name lhumerus
     direction 1 -4.48915e-011 -1.10425e-027   
     length 4.94762   
     axis -180 -30 -90   XYZ
    dof rx ry rz
    limits (-60.0 90.0)
           (-90.0 90.0)
           (-90.0 90.0)
  end
  begin
     id 19
     name lradius
     direction 1 1.63657e-005 -9.44877e-006   
     length 3.11144   
     axis -180 -30 -90   XYZ
    dof rx
    limits (-10.0 170.0)
  end
  begin
     id 20
     name lwrist
     direction 1 -5.04565e-007 -1.8883e-005   
     length 1.55572   
     axis 1.22104e-015 90 90   XYZ
    dof ry
    limits (-180.0 0.0)
 end
  begin
     id 21 
     name lhand
     direction 1 -4.48949e-011 -2.20333e-027   
     length 0.686387   
     axis 1.40591e-015 90 90   XYZ
    dof rx rz
    limits (-90.0 90.0)
           (-45.0 45.0)
  end
  begin
     id 22 
     name lfingers
     direction 1 -4.49191e-011 -4.40665e-027   
     length 0.553383   
     axis 2.81182e-015 90 90   XYZ
    dof rx
    limits (0.0 90.0)
  end
  begin
     id 23
     name lthumb
     direction 0.707107 -6.35116e-011 0.707107   
     length 0.79455   
     axis -90 45 2.85299e-015   XYZ
    dof rx rz
    limits (-45.0 45.0)
           (-45.0 45.0)
  end
  begin
     id 24 
     name rclavicle
     direction -0.947168 0.319303 -0.0302977   
     length 3.53547  
     axis 0 0 0   XYZ 
    dof ry rz
    limits (-10.0 20.0)
           (-20.0 0.0)
  end
  begin
     id 25 
     name rhumerus
     direction -1 -0.000401632 0.000196042  
     length 4.77566   
     axis -180 30 90   XYZ
    dof rx ry rz
    limits (-90.0 60.0)
           (-90.0 90.0)
           (-90.0 90.0)
  end
  begin
     id 26 
     name rradius
     direction -1 -4.49012e-011 -4.87197e-027   
     length 3.21433   
     axis -180 30 90   XYZ
    dof rx
    limits (-10.0 170.0)
  end
  begin
     id 27 
     name rwrist
     direction -1 -4.48899e-011 -5.86351e-027   
     length 1.60716   
     axis 3.17445e-015 -90 -90   XYZ
    dof ry
    limits (-180.0 0.0)
  end
  begin
     id 28
     name rhand
     direction -0.999958 0.00678358 -0.00613214   
     length 0.625487   
     axis 7.48284e-015 -90 -90   XYZ
    dof rx rz
    limits (-90.0 90.0)
           (-45.0 45.0)
  end
  begin
     id 29
     name rfingers
     direction -1 -4.48756e-011 -2.3454e-026   
     length 0.505648   
     axis 1.49657e-014 -90 -90   XYZ
    dof rx
    limits (0.0 90.0)
  end
  begin
     id 30
     name rthumb
     direction -0.708559 0.00587598 0.705627   
     length 0.722099   
     axis -90 -45 -2.85299e-015   XYZ
    dof rx rz
    limits (-45.0 45.0)
           (-45.0 45.0)
  end
:hierarchy
  begin
    root lhipjoint rhipjoint lowerback
    lhipjoint lfemur
    lfemur ltibia
    ltibia lfoot
    lfoot ltoes
    rhipjoint rfemur
    rfemur rtibia
    rtibia rfoot
    rfoot rtoes
    lowerback upperback
    upperback thorax
    thorax lowerneck lclavicle rclavicle
    lowerneck upperneck
    upperneck head
    lclavicle lhumerus
    lhumerus lradius
    lradius lwrist
    lwrist lhand lthumb
    lhand lfingers
    rclavicle rhumerus
    rhumerus rradius
    rradius rwrist
    rwrist rhand rthumb
    rhand rfingers
  end

#!OML:ASF C:\Documents and Settings\Administrator\Desktop\SteveTeapot.ASF
:FULLY-SPECIFIED
:DEGREES
203
root -0.122087 16.5229 -7.81522 18.9043 1.43057 1.27916
lowerback -14.4667 -2.23275 -4.56898
upperback -3.51664 -2.33168 1.00093
thorax 4.59998 -1.19728 3.21212
lowerneck -8.20563 -2.56955 -0.72125
upperneck 11.2741 -4.35456 7.71755
head 4.92551 -1.6885 2.21652
rclavicle 2.33883e-015 -7.30534e-015
rhumerus -15.3882 44.2563 -72.3073
rradius 114.953
rwrist -99.1006
rhand 13.7205 -41.3823
rfingers 7.12502
rthumb 38.6459 -67.0029
lclavicle 2.33883e-015 -7.30534e-015
lhumerus 37.1047 -28.3829 36.6503
lradius 118.48
lwrist 13.2921
lhand -19.0775 -34.0951
lfingers 7.12502
lthumb 7.23035 -4.23861
rfemur -30.9427 -7.81123 15.8745
rtibia 36.0845
rfoot -23.2196 -5.05208
rtoes -20.9339
lfemur -33.8576 1.81739 -20.3055
ltibia 36.4505
lfoot -19.0667 5.57773
ltoes -15.8364
204
root -0.141715 16.5138 -7.82364 18.9278 1.55383 1.19339
lowerback -14.6273 -2.22824 -4.35294
upperback -3.43238 -2.34907 1.00645
thorax 4.77043 -1.20848 3.08673
lowerneck -8.44172 -2.56111 -0.686787
upperneck 11.5551 -4.38407 7.80544
head 5.05527 -1.6824 2.23381
rclavicle 2.92431e-014 1.13307e-014
rhumerus -15.3576 43.0541 -72.547
rradius 114.27
rwrist -102.261
rhand 14.265 -45.3346
rfingers 7.12502
rthumb 39.1594 -70.8088
lclavicle 2.92431e-014 1.13307e-014
lhumerus 38.116 -27.769 36.65
lradius 117.993
lwrist 13.4192
lhand -18.9549 -33.6036
lfingers 7.12502
lthumb 7.34872 -3.75122
rfemur -30.9524 -7.89477 16.0758
rtibia 36.1616
rfoot -23.3795 -5.25091
rtoes -21.5308
lfemur -34.0053 1.64405 -20.0842
ltibia 36.6286
lfoot -19.0212 5.75149
ltoes -16.0593
205
root -0.168008 16.4967 -7.84002 18.8964 1.46852 1.22524
lowerback -14.5928 -2.1963 -4.40718
upperback -3.35537 -2.29819 0.9868
thorax 4.83 -1.18653 3.10607
lowerneck -8.63572 -2.609 -0.646751
upperneck 11.7579 -4.48277 7.87623
head 5.15664 -1.71384 2.24026
rclavicle -2.4758e-014 -2.98177e-016
rhumerus -15.1744 42.5095 -72.8936
rradius 113.562
rwrist -103.363
rhand 14.8036 -46.8155
rfingers 7.12502
rthumb 39.6668 -72.1412
lclavicle -2.4758e-014 -2.98177e-016
lhumerus 39.2666 -27.1931 36.6087
lradius 117.437
lwrist 13.8144
lhand -18.649 -32.93
lfingers 7.12502
lthumb 7.64393 -3.08814
rfemur -30.9804 -7.82122 16.1278
rtibia 36.2746
rfoot -23.3333 -5.85295
rtoes -23.552
lfemur -34.1351 1.61025 -20.0156
ltibia 36.8055
lfoot -18.9306 5.81575
ltoes -16.2707
206
root -0.194154 16.4899 -7.86152 18.8943 1.40283 1.16788
lowerback -14.4477 -2.11871 -4.34662
upperback -3.34848 -2.21131 0.984443
thorax 4.74849 -1.14166 3.08939
lowerneck -8.66461 -2.74271 -0.777708
upperneck 11.9408 -4.68386 8.04468
head 5.23435 -1.80072 2.29935
rclavicle 4.03781e-015 2.33572e-015
rhumerus -15.3152 42.3127 -73.4782
rradius 112.954
rwrist -103.601
rhand 14.9378 -46.6183
rfingers 7.12502
rthumb 39.7931 -71.9065
lclavicle 4.03781e-015 2.33572e-015
lhumerus 40.2411 -26.8795 36.5104
lradius 116.993
lwrist 14.1111
lhand -18.2214 -32.8335
lfingers 7.12502
lthumb 8.05669 -3.00703
rfemur -31.1604 -7.73937 16.2631
rtibia 36.4326
rfoot -23.4053 -5.83076
rtoes -23.6698
lfemur -34.3132 1.50678 -19.8219
ltibia 36.9945
lfoot -18.8558 5.98355
ltoes -16.8882
207
root -0.215736 16.4951 -7.87781 18.8206 1.3883 1.14512
lowerback -14.3399 -2.04049 -4.24939
upperback -3.29177 -2.12395 0.940102
thorax 4.73731 -1.09814 3.00566
lowerneck -8.64356 -2.8327 -0.809403
upperneck 12.0597 -4.83153 8.19544
head 5.27932 -1.86116 2.34101
rclavicle -2.78889e-014 -4.57205e-015
rhumerus -15.7463 42.1282 -74.1373
rradius 112.46
rwrist -103.872
rhand 14.4269 -46.0132
rfingers 7.12502
rthumb 39.3119 -71.4432
lclavicle -2.78889e-014 -4.57205e-015
lhumerus 41.042 -26.7362 36.3553
lradius 116.551
lwrist 13.8615
lhand -17.7815 -33.4185
lfingers 7.12502
lthumb 8.48118 -3.60885
rfemur -31.3543 -7.75063 16.3462
rtibia 36.6421
rfoot -23.4534 -5.4351
rtoes -23.1144
lfemur -34.3457 1.29387 -19.6472
ltibia 37.1339
lfoot -18.8614 6.26383
ltoes -17.1261
208
root -0.241035 16.4915 -7.89441 18.7305 1.3002 1.17527
lowerback -14.2354 -1.99627 -4.29995
upperback -3.23106 -2.05949 0.894476
thorax 4.73911 -1.06791 2.99968
lowerneck -8.44855 -2.86947 -0.721206
upperneck 11.9774 -4.89471 8.2753
head 5.22384 -1.89009 2.34905
rclavicle 9.02296e-015 2.70844e-015
rhumerus -16.1505 42.0408 -74.8026
rradius 111.937
rwrist -104.095
rhand 13.7725 -45.4931
rfingers 7.12502
rthumb 38.695 -71.0998
lclavicle 9.02296e-015 2.70844e-015
lhumerus 41.8294 -26.6193 36.1686
lradius 115.865
lwrist 13.0136
lhand -17.7319 -34.4151
lfingers 7.12502
lthumb 8.52907 -4.60733
rfemur -31.5244 -7.54857 16.3493
rtibia 36.8621
rfoot -23.4935 -5.4398
rtoes -23.4448
lfemur -34.3576 1.16642 -19.5471
ltibia 37.2405
lfoot -18.8432 6.45644
ltoes -17.2331
209
root -0.260694 16.4847 -7.90891 18.7078 1.18341 1.19996
lowerback -14.2029 -1.95196 -4.28883
upperback -3.15092 -2.00131 0.8652
thorax 4.79984 -1.04161 2.97292
lowerneck -8.43128 -2.9407 -0.617837
upperneck 11.956 -4.99748 8.23121
head 5.21587 -1.93953 2.31088
rclavicle -1.80459e-014 -3.13086e-015
rhumerus -16.4856 42.0962 -75.4552
rradius 111.288
rwrist -103.954
rhand 13.5205 -44.8471
rfingers 7.12502
rthumb 38.4572 -70.5204
lclavicle -1.80459e-014 -3.13086e-015
lhumerus 42.5283 -26.4114 35.9796
lradius 115.412
lwrist 12.8785
lhand -17.2231 -34.1656
lfingers 7.12502
lthumb 9.02011 -4.37846
rfemur -31.7113 -7.69325 16.4299
rtibia 37.0324
rfoot -23.5757 -5.44677
rtoes -24.7474
lfemur -34.4413 1.09288 -19.4846
ltibia 37.3435
lfoot -18.8333 6.4787
ltoes -16.8236
